<svg width="55" height="30" viewBox="0 0 55 30" fill="none" xmlns="http://www.w3.org/2000/svg">
<path d="M1.18483 24.8922H6.86967C7.16661 26.3416 7.90561 27.637 8.965 28.5653C10.0244 29.4936 11.341 29.9994 12.6981 29.9994C14.0551 29.9994 15.3717 29.4936 16.4311 28.5653C17.4905 27.637 18.2295 26.3416 18.5265 24.8922H37.6054C37.9022 26.3417 38.6411 27.6373 39.7005 28.5657C40.7599 29.4941 42.0765 30 43.4336 30C44.7908 30 46.1074 29.4941 47.1668 28.5657C48.2262 27.6373 48.9651 26.3417 49.2618 24.8922H53.8152C54.1294 24.8922 54.4308 24.7556 54.653 24.5124C54.8752 24.2692 55 23.9393 55 23.5954V13.902C54.9978 13.2811 54.7822 12.6839 54.396 12.2291C54.0099 11.7744 53.4814 11.4953 52.9159 11.4475L40.7804 10.4736C40.6377 10.4485 40.5011 10.3923 40.3787 10.3083C40.2562 10.2243 40.1504 10.1143 40.0675 9.98472L34.4858 1.25706C34.2372 0.86892 33.9069 0.552033 33.5227 0.333221C33.1386 0.114409 32.7119 0.000110696 32.2788 5.60541e-08H14.2461C13.0487 -0.00016876 11.8772 0.380978 10.8744 1.09697C9.87156 1.81295 9.08074 2.83284 8.59834 4.03227L6.38231 9.54899C6.28965 9.77929 6.13779 9.97511 5.94522 10.1126C5.75265 10.25 5.5277 10.3232 5.29779 10.3232H1.18483C0.870597 10.3232 0.56923 10.4598 0.34703 10.703C0.124831 10.9462 5.9247e-07 11.2761 5.9247e-07 11.62V23.5941C-0.000155102 23.7645 0.0303767 23.9333 0.0898505 24.0908C0.149324 24.2482 0.236574 24.3914 0.346611 24.5119C0.456649 24.6325 0.587316 24.7281 0.731144 24.7934C0.874972 24.8586 1.02914 24.8922 1.18483 24.8922V24.8922ZM12.6983 27.4063C11.7746 27.4047 10.8866 27.0156 10.2172 26.319C9.54774 25.6225 9.14773 24.6715 9.09953 23.6619C9.09953 23.6395 9.10584 23.6187 9.10584 23.5954C9.10399 23.5421 9.09911 23.4889 9.09123 23.4363C9.09513 22.6563 9.31003 21.895 9.7088 21.2486C10.1076 20.6021 10.6723 20.0994 11.3319 19.8038C11.9914 19.5083 12.7161 19.4332 13.4146 19.5881C14.1131 19.7429 14.754 20.1207 15.2565 20.6738C15.759 21.2268 16.1006 21.9304 16.2382 22.6958C16.3757 23.4611 16.3031 24.2539 16.0294 24.9742C15.7558 25.6944 15.2933 26.3097 14.7005 26.7426C14.1076 27.1754 13.4109 27.4064 12.6983 27.4063V27.4063ZM43.4336 27.4063C42.7242 27.4071 42.0303 27.1788 41.4387 26.7502C40.8471 26.3215 40.3841 25.7115 40.1077 24.9963C39.8312 24.2812 39.7535 23.4927 39.8843 22.7295C40.0151 21.9663 40.3486 21.2622 40.843 20.7053C41.3375 20.1485 41.971 19.7635 42.6643 19.5987C43.3576 19.4338 44.0799 19.4963 44.7409 19.7784C45.4019 20.0605 45.9722 20.5496 46.3806 21.1846C46.7889 21.8196 47.0172 22.5723 47.0367 23.3486C47.0219 23.4298 47.0142 23.5125 47.0138 23.5954C47.0158 23.6472 47.0205 23.6989 47.028 23.7501C46.9602 24.7432 46.5522 25.6716 45.8857 26.3495C45.2192 27.0274 44.3435 27.4049 43.4336 27.4063ZM32.5446 2.74452L37.3914 10.3232H23.59V2.59366H32.2788C32.3309 2.59361 32.3823 2.60729 32.4286 2.63355C32.4748 2.65981 32.5146 2.69787 32.5446 2.74452V2.74452ZM10.769 5.07665C11.0659 4.33849 11.5525 3.71076 12.1696 3.26991C12.7867 2.82905 13.5076 2.5941 14.2445 2.59366H21.2204V10.3232H8.66114L10.769 5.07665ZM5.29779 12.9169H39.6809C39.7503 12.9158 39.8196 12.9082 39.8878 12.8939C40.0857 12.9658 40.2892 13.0177 40.4957 13.0491C40.519 13.0526 40.5423 13.0552 40.566 13.0573L52.6303 14.0252V22.2986H49.3128C49.0657 20.789 48.3415 19.4227 47.267 18.4386C46.1924 17.4545 44.8359 16.9152 43.4348 16.9152C42.0337 16.9152 40.6772 17.4545 39.6027 18.4386C38.5281 19.4227 37.804 20.789 37.5569 22.2986H18.5762C18.3293 20.7888 17.6052 19.4221 16.5306 18.4378C15.456 17.4534 14.0994 16.914 12.6981 16.914C11.2968 16.914 9.9401 17.4534 8.86549 18.4378C7.79089 19.4221 7.06678 20.7888 6.81991 22.2986H2.36967V12.9181H5.29779V12.9169Z" fill="black"/>
</svg>
