<svg width="50" height="50" viewBox="0 0 50 50" fill="none" xmlns="http://www.w3.org/2000/svg">
<path d="M3.32958 14.1822C3.31383 13.0891 3.73287 12.0344 4.49454 11.2501C5.25622 10.4659 6.29818 10.0162 7.39132 10C8.47931 10.0319 9.51205 10.4865 10.2704 11.2673C11.0286 12.0482 11.4528 13.0938 11.4528 14.1822C11.4528 15.2707 11.0286 16.3163 10.2704 17.0971C9.51205 17.878 8.47931 18.3326 7.39132 18.3644C6.29818 18.3482 5.25622 17.8986 4.49454 17.1143C3.73287 16.33 3.31383 15.2754 3.32958 14.1822V14.1822ZM1.41833e-10 24.5701V34.6357C-2.91814e-06 34.8643 0.0450279 35.0907 0.132521 35.302C0.220015 35.5132 0.348257 35.7051 0.509927 35.8668C0.671596 36.0285 0.863526 36.1567 1.07476 36.2442C1.28599 36.3317 1.51239 36.3768 1.74103 36.3768H2.48999L2.89574 49.0899C2.90353 49.3339 3.00594 49.5653 3.1813 49.7352C3.35666 49.905 3.59121 50 3.83534 50H10.5839C10.8148 50 11.0377 49.915 11.2099 49.7613C11.3822 49.6075 11.4919 49.3957 11.518 49.1663L14.2589 25.1006C14.2932 24.7988 14.4218 24.5156 14.6264 24.2912C14.831 24.0668 15.1012 23.9126 15.3985 23.8506L22.548 22.3588C22.9319 22.278 23.2728 22.0592 23.5061 21.7438C23.7394 21.4284 23.8489 21.0384 23.8139 20.6477L27.7154 17.0551C27.7964 16.9812 27.8621 16.892 27.9086 16.7926C27.9551 16.6932 27.9815 16.5856 27.9863 16.476C27.991 16.3663 27.9741 16.2569 27.9365 16.1538C27.8988 16.0507 27.8412 15.9561 27.7669 15.8754C27.6926 15.7946 27.6031 15.7294 27.5035 15.6833C27.4039 15.6373 27.2962 15.6114 27.1865 15.6071C27.0769 15.6028 26.9675 15.6201 26.8646 15.6582C26.7617 15.6963 26.6673 15.7544 26.5869 15.829L22.8196 19.298C22.5993 19.2079 22.3617 19.1681 22.1241 19.1814L4.06118 20.2594C2.96235 20.325 1.93004 20.8077 1.1752 21.6089C0.420369 22.4101 -3.58453e-07 23.4694 1.41833e-10 24.5701ZM50 33.2151V1.22932C50 1.06788 49.9682 0.908025 49.9064 0.758876C49.8447 0.609728 49.7541 0.474208 49.64 0.360056C49.5258 0.245903 49.3903 0.155352 49.2411 0.0935732C49.092 0.0317947 48.9321 -1.45912e-06 48.7707 0H1.22931C0.903277 1.47347e-06 0.590597 0.129519 0.360057 0.360061C0.129516 0.590602 1.38504e-10 0.903283 1.41833e-10 1.22932V8.53326H2.22222V2.22222H47.7778V32.2222H17.9335V34.4444H48.7707C48.9321 34.4444 49.092 34.4127 49.2411 34.3509C49.3903 34.2891 49.5258 34.1985 49.64 34.0844C49.7541 33.9702 49.8447 33.8347 49.9064 33.6856C49.9682 33.5364 50 33.3766 50 33.2151V33.2151Z" fill="black"/>
</svg>
