<svg width="50" height="50" viewBox="0 0 50 50" fill="none" xmlns="http://www.w3.org/2000/svg">
<path d="M48.75 42.5C49.4404 42.5 50 41.9404 50 41.25V30.5357C50 27.6561 46.9013 25 43.75 25H6.25C3.09874 25 0 27.6561 0 30.5357V41.25C0 41.9404 0.559644 42.5 1.25 42.5H48.75ZM40 37.5C37.9289 37.5 36.25 35.8211 36.25 33.75C36.25 31.6789 37.9289 30 40 30C42.0711 30 43.75 31.6789 43.75 33.75C43.75 35.8211 42.0711 37.5 40 37.5ZM10 37.5C7.92893 37.5 6.25 35.8211 6.25 33.75C6.25 31.6789 7.92893 30 10 30C12.0711 30 13.75 31.6789 13.75 33.75C13.75 35.8211 12.0711 37.5 10 37.5Z" fill="black"/>
<path d="M45 41.25C45 40.5596 44.4404 40 43.75 40H36.25C35.5596 40 35 40.5596 35 41.25V48.75C35 49.4404 35.5596 50 36.25 50H43.75C44.4404 50 45 49.4404 45 48.75V41.25Z" fill="black"/>
<path d="M15 41.25C15 40.5596 14.4404 40 13.75 40H6.25C5.55965 40 5 40.5596 5 41.25V48.75C5 49.4404 5.55965 50 6.25 50H13.75C14.4404 50 15 49.4404 15 48.75V41.25Z" fill="black"/>
<path d="M8.09628 25L12.0963 15H37.9037L41.9037 25H8.09628ZM44.9106 25.7858L39.9106 13.2858C39.7208 12.8112 39.2611 12.5 38.75 12.5H11.25C10.7389 12.5 10.2792 12.8112 10.0894 13.2858L5.08939 25.7858C4.76096 26.6068 5.36566 27.5 6.24999 27.5H43.75C44.6343 27.5 45.239 26.6068 44.9106 25.7858Z" fill="black"/>
<path d="M28.75 11.25C28.75 8.84089 27.0966 7.1875 25 7.1875C22.9034 7.1875 21.25 8.84089 21.25 11.25V15H28.75V11.25Z" fill="black"/>
<path d="M31.8386 7.8661C31.1718 8.04478 30.7761 8.7302 30.9547 9.39703C31.1334 10.0639 31.8188 10.4596 32.4857 10.2809L34.9005 9.63386C35.5673 9.45519 35.963 8.76977 35.7844 8.10293C35.6057 7.4361 34.9203 7.04037 34.2534 7.21905L31.8386 7.8661Z" fill="black"/>
<path d="M29.0088 4.37479C28.5206 4.86294 28.5206 5.6544 29.0088 6.14256C29.4969 6.63071 30.2884 6.63071 30.7765 6.14256L32.5443 4.37479C33.0324 3.88663 33.0324 3.09518 32.5443 2.60702C32.0561 2.11887 31.2647 2.11887 30.7765 2.60702L29.0088 4.37479Z" fill="black"/>
<path d="M21.7577 4.37479C22.2459 4.86294 22.2459 5.6544 21.7577 6.14256C21.2696 6.63071 20.4781 6.63071 19.99 6.14256L18.2222 4.37479C17.734 3.88663 17.734 3.09518 18.2222 2.60702C18.7104 2.11887 19.5018 2.11887 19.99 2.60702L21.7577 4.37479Z" fill="black"/>
<path d="M23.75 3.75C23.75 4.44036 24.3096 5 25 5C25.6904 5 26.25 4.44036 26.25 3.75V1.25C26.25 0.559644 25.6904 0 25 0C24.3096 0 23.75 0.559644 23.75 1.25V3.75Z" fill="black"/>
<path d="M15.8317 7.21905C15.1649 7.04037 14.4795 7.4361 14.3008 8.10293C14.1221 8.76977 14.5179 9.45519 15.1847 9.63386L17.5995 10.2809C18.2663 10.4596 18.9518 10.0639 19.1304 9.39703C19.3091 8.7302 18.9134 8.04478 18.2466 7.8661L15.8317 7.21905Z" fill="black"/>
</svg>
