<svg id="Capa_1" enable-background="new 0 0 510.5 510.5" height="512" viewBox="0 0 510.5 510.5" width="512" xmlns="http://www.w3.org/2000/svg"><g><g><path d="m374.345 503h36.434c12.7 0 22.995-10.295 22.995-22.995v-449.51c0-12.7-10.295-22.995-22.995-22.995h-36.434z" fill="#eee"/><path d="m375.255 503h-285.817c-12.197 0-22.085-9.888-22.085-22.085v-451.33c0-12.197 9.888-22.085 22.085-22.085h285.816c12.197 0 22.085 9.888 22.085 22.085v451.33c.001 12.197-9.887 22.085-22.084 22.085z" fill="#f7f8f4"/><path d="m397.34 180.3 39.952-39.952c3.747-3.747 5.85-8.827 5.85-14.126v-45.646c0-11.034-8.952-19.987-19.987-19.987h-25.815z" fill="#e27f86"/><path d="m330.198 163.5v33.81c0 6.38-5.18 11.56-11.56 11.56h-57.83v57.82c0 6.39-5.17 11.57-11.56 11.57h-33.8c-6.39 0-11.57-5.18-11.57-11.57v-57.82h-57.82c-6.38 0-11.56-5.18-11.56-11.56v-33.81c0-6.38 5.18-11.56 11.56-11.56h57.82v-57.82c0-6.39 5.18-11.57 11.57-11.57h33.8c6.39 0 11.56 5.18 11.56 11.57v57.82h57.83c6.38 0 11.56 5.18 11.56 11.56z" fill="#e27f86"/><path d="m114.438 503h-25c-12.2 0-22.08-9.89-22.08-22.09v-451.32c0-12.2 9.88-22.09 22.08-22.09h25c-12.2 0-22.08 9.89-22.08 22.09v451.32c0 12.2 9.88 22.09 22.08 22.09z" fill="#eee"/></g><g><path d="m441.278 59.935v-29.445c0-16.813-13.682-30.49-30.5-30.49h-35.52-285.82c-16.311 0-29.58 13.273-29.58 29.59v26.66c0 4.143 3.358 7.5 7.5 7.5s7.5-3.357 7.5-7.5v-26.66c0-8.045 6.541-14.59 14.58-14.59h285.82c8.04 0 14.58 6.545 14.58 14.59v451.32c0 8.045-6.541 14.59-14.58 14.59h-285.82c-8.04 0-14.58-6.545-14.58-14.59v-390.66c0-4.143-3.358-7.5-7.5-7.5s-7.5 3.357-7.5 7.5v390.66c0 16.316 13.27 29.59 29.58 29.59h285.82 35.52c16.818 0 30.5-13.678 30.5-30.49v-40.76c0-4.143-3.358-7.5-7.5-7.5s-7.5 3.357-7.5 7.5v40.76c0 8.541-6.953 15.49-15.5 15.49h-9.801c2.453-4.309 3.861-9.287 3.861-14.59v-297.5l21.44-21.44v243.28c0 4.143 3.358 7.5 7.5 7.5s7.5-3.357 7.5-7.5v-258.281l1.318-1.318c5.189-5.189 8.047-12.089 8.047-19.429v-45.646c-.001-8.218-3.63-15.6-9.365-20.641zm-30.5-44.935c8.547 0 15.5 6.949 15.5 15.49v22.781c-1.025-.116-21.44-.182-21.44-.182v-23.499c0-5.303-1.409-10.281-3.861-14.59zm-5.94 53.089h18.318c6.885 0 12.487 5.602 12.487 12.487v45.646c0 3.333-1.297 6.466-3.653 8.821l-3.495 3.495c-.013.013-.025.025-.038.038l-23.619 23.619z"/><path d="m249.248 75.054h-33.803c-10.512 0-19.064 8.553-19.064 19.064v50.32h-50.321c-10.512 0-19.064 8.553-19.064 19.064v33.803c0 10.512 8.552 19.064 19.064 19.064h50.321v50.321c0 10.512 8.552 19.063 19.064 19.063h33.803c10.512 0 19.064-8.552 19.064-19.063v-50.32h50.321c10.512 0 19.064-8.553 19.064-19.064v-33.803c0-10.512-8.552-19.064-19.064-19.064h-50.321v-50.32c0-10.513-8.552-19.065-19.064-19.065zm73.45 88.449v33.803c0 2.241-1.823 4.064-4.064 4.064h-57.821c-4.142 0-7.5 3.357-7.5 7.5v57.821c0 2.24-1.823 4.063-4.064 4.063h-33.803c-2.241 0-4.064-1.823-4.064-4.063v-57.821c0-4.143-3.358-7.5-7.5-7.5h-57.822c-2.241 0-4.064-1.823-4.064-4.064v-33.803c0-2.241 1.823-4.064 4.064-4.064h57.821c4.142 0 7.5-3.357 7.5-7.5v-57.82c0-2.241 1.823-4.064 4.064-4.064h33.803c2.241 0 4.064 1.823 4.064 4.064v57.82c0 4.143 3.358 7.5 7.5 7.5h57.821c2.241-.001 4.065 1.823 4.065 4.064z"/><path d="m119.188 353.101c0 4.143 3.358 7.5 7.5 7.5h211.316c4.142 0 7.5-3.357 7.5-7.5s-3.358-7.5-7.5-7.5h-211.316c-4.142 0-7.5 3.357-7.5 7.5z"/><path d="m126.688 412.649h211.316c4.142 0 7.5-3.357 7.5-7.5s-3.358-7.5-7.5-7.5h-211.316c-4.142 0-7.5 3.357-7.5 7.5s3.358 7.5 7.5 7.5z"/><path d="m126.688 464.697h211.316c4.142 0 7.5-3.357 7.5-7.5s-3.358-7.5-7.5-7.5h-211.316c-4.142 0-7.5 3.357-7.5 7.5s3.358 7.5 7.5 7.5z"/></g></g></svg>