<svg width="50" height="50" viewBox="0 0 50 50" fill="none" xmlns="http://www.w3.org/2000/svg">
<path d="M34.8689 13.1033C37.6585 12.5474 39.637 10.1236 40.0224 7.46082C40.0799 7.06612 40.1144 6.67143 40.1202 6.27117V6.25449C40.1087 4.90362 39.7751 3.51384 38.9238 2.41869C38.1244 1.39025 37.0258 0.678687 35.7547 0.311785C33.3102 -0.394225 30.2331 0.0727422 28.4846 1.97952C26.5175 4.11979 26.4888 7.52197 27.8692 9.95687C29.2381 12.3695 32.0736 13.6592 34.8689 13.1033Z" fill="black"/>
<path d="M49.8865 28.5634C49.7887 28.291 49.6795 28.0241 49.5817 27.7573C49.0928 26.4676 48.5981 25.1834 48.1093 23.8937C47.6951 22.8041 47.281 21.7145 46.8612 20.6249C46.6426 20.0467 46.4298 19.4686 46.0502 18.9627C45.4923 18.2178 44.7733 17.6285 43.8991 17.2505C41.6789 16.2888 39.4588 15.3381 37.2329 14.3764C37.1696 14.3486 37.1006 14.3208 37.0374 14.293C36.721 14.154 36.2379 14.1151 35.9906 14.4209C35.8353 14.6154 35.657 14.7989 35.4672 14.9657C35.4384 14.9935 35.4039 15.0157 35.3751 15.0435C35.3694 15.0435 35.2774 15.1102 35.2544 15.1269C35.1336 15.2047 35.0013 15.2825 34.869 15.3437C34.8172 15.3715 34.7655 15.3937 34.7079 15.416C34.7195 15.4104 34.7252 15.4104 34.7367 15.4048C34.7079 15.416 34.6907 15.4215 34.6792 15.4271C34.6849 15.4271 34.6907 15.4215 34.7022 15.416C34.7022 15.416 34.7079 15.416 34.7079 15.4104C34.6849 15.4215 34.6619 15.4271 34.6332 15.4382C34.5066 15.4827 34.3801 15.5216 34.2536 15.5549C34.1846 15.5716 34.1155 15.5883 34.0408 15.5994C34.012 15.605 33.9027 15.6161 33.897 15.6217H33.9142C33.9027 15.6217 33.897 15.6217 33.897 15.6217C33.7934 15.6328 33.6899 15.6383 33.5864 15.6383C33.4541 15.6383 33.3218 15.6383 33.1895 15.6272C33.1665 15.6272 33.0745 15.6105 33.0515 15.605C33.0572 15.605 33.0745 15.6105 33.109 15.6161C33.0572 15.605 33.0055 15.5994 32.9537 15.5883C32.8214 15.5605 32.6949 15.5271 32.5683 15.4882C32.4993 15.466 32.4303 15.4438 32.3613 15.416C32.3498 15.4104 32.344 15.4104 32.3325 15.4048C32.4476 15.466 32.1887 15.3548 32.3325 15.4048C32.321 15.3993 32.3095 15.3937 32.298 15.3882C32.1772 15.327 32.0564 15.2714 31.9414 15.1992C31.8781 15.1602 31.8149 15.1213 31.7516 15.0824C31.7286 15.0713 31.7056 15.0546 31.6941 15.0379C31.6941 15.0379 31.6941 15.0379 31.6883 15.0324C31.6883 15.0324 31.6826 15.0324 31.6826 15.0268C31.5791 14.9434 31.4755 14.8489 31.3778 14.7544C31.326 14.6988 31.2685 14.6432 31.2167 14.5877C31.1937 14.5599 31.1304 14.482 31.1132 14.4653C31.1189 14.4765 31.1477 14.5098 31.1995 14.5765C30.8889 14.1874 30.492 14.0762 30.0204 14.2763C27.714 15.2659 25.4133 16.2498 23.1069 17.2394C22.3189 17.5785 21.3757 18.0788 20.9155 18.8348H36.1861C36.2436 18.8348 36.3012 18.8348 36.3587 18.8348H36.5427C36.606 18.8348 36.6693 18.8348 36.7383 18.8348C37.5608 18.8404 38.3487 19.1239 38.9469 19.6242C39.5566 20.1301 39.9477 20.8473 40.057 21.6422C40.0685 21.7256 40.08 21.8145 40.0857 21.9146L40.0915 21.9646V22.1036C40.1087 23.4934 40.103 24.8999 40.0972 26.2563C40.0915 26.9345 40.0915 27.6294 40.0915 28.3132V36.2961H41.8515C42.1506 36.2961 42.3979 36.2405 42.6452 36.046C42.8753 35.8681 43.0996 35.6846 43.3297 35.5012C45.291 33.9446 47.258 32.4047 49.2136 30.837C49.8865 30.3034 50.1798 29.3861 49.8865 28.5634Z" fill="black"/>
<path d="M38.3602 41.7161V28.3242C38.3602 26.2562 38.389 24.1882 38.3602 22.1258V22.0257C38.3545 21.9757 38.3545 21.9312 38.3487 21.8867C38.2394 21.0751 37.5837 20.5303 36.721 20.5192C36.5427 20.5192 36.3644 20.5192 36.1918 20.5192H5.71393C4.33354 20.5192 2.95314 20.4803 1.57275 20.5192C0.675497 20.547 0.0198112 21.203 0.00255628 22.0646C-0.00319535 22.2759 0.00255628 22.4927 0.00255628 22.7039V42.6556C0.00255628 43.0059 0.00255621 43.3394 0.180857 43.6674C0.456935 44.1788 0.997589 44.4568 1.5785 44.4735C1.67053 44.4735 1.76256 44.4735 1.84883 44.4735H13.6224C13.6454 44.2122 13.6684 43.9509 13.6914 43.6896C13.6914 43.6729 13.6914 43.6563 13.6972 43.6396C13.7202 43.3616 13.749 43.0837 13.772 42.8057C13.8295 42.1609 13.887 41.516 13.9445 40.8656C14.1171 38.9366 14.2896 37.002 14.4622 35.073C14.5599 33.9723 14.6405 32.866 14.7555 31.7653C14.8533 30.8425 15.5205 30.142 16.4982 30.0587C16.7053 30.042 16.9124 30.0531 17.1194 30.0531H17.1999C17.3552 30.0475 17.5105 30.0531 17.6658 30.0531H19.7192C19.9492 30.0531 20.1735 30.0475 20.4036 30.0475C20.4151 30.0475 20.4266 30.0475 20.4381 30.0475C20.8982 30.0364 21.3641 30.0253 21.8243 30.0587C22.8135 30.1198 23.5037 30.8369 23.6015 31.7709C23.613 31.8654 23.6188 31.9543 23.6245 32.0488C23.7568 33.522 23.8891 34.9952 24.0214 36.4683C24.1882 38.3195 24.355 40.1763 24.5218 42.0274C24.5448 42.2887 24.5678 42.5444 24.5908 42.8057C24.6138 43.0837 24.6426 43.3616 24.6656 43.6396C24.6886 43.9009 24.7116 44.1622 24.7346 44.4234C24.7346 44.4401 24.7346 44.4568 24.7403 44.4735H36.4737C37.1121 44.4735 37.7275 44.3567 38.1129 43.7841C38.4867 43.2227 38.3602 42.3554 38.3602 41.7161Z" fill="black"/>
<path d="M27.1732 48.9097C27.1444 48.3093 26.6671 47.7979 26.0229 47.7979H23.3081C23.2103 46.6805 23.1068 45.5576 23.009 44.4402C22.986 44.2012 22.963 43.9621 22.9457 43.7175C22.8652 42.8503 22.7904 41.9831 22.7157 41.1158C22.5489 39.2257 22.3763 37.3356 22.2095 35.4455C22.1003 34.2336 21.9967 33.0217 21.8874 31.8099V31.8043C21.8874 31.8099 21.8932 31.8099 21.8932 31.8154C21.8932 31.8099 21.8874 31.8043 21.8874 31.7987C21.8874 31.871 21.8242 31.6876 21.8874 31.7987C21.8817 31.7876 21.8759 31.7765 21.8702 31.7654C21.8702 31.7598 21.8644 31.7598 21.8644 31.7543C21.8529 31.7431 21.8357 31.732 21.8184 31.7265C21.8012 31.7431 21.7839 31.7265 21.7724 31.7098C21.7436 31.7098 21.7264 31.7098 21.7724 31.7042C21.7667 31.7042 21.7609 31.7042 21.7552 31.7042C21.5941 31.7042 21.4273 31.7042 21.2663 31.7042C21.2663 31.7042 21.2605 31.7042 21.2548 31.7042C21.2548 31.7042 21.2605 31.7098 21.2663 31.7154L21.2605 31.7098L21.2548 31.7042C21.249 31.7042 21.2375 31.7042 21.226 31.7042C21.226 31.7042 21.2202 31.7042 21.2202 31.6987H21.1627C21.0017 31.7042 20.8464 31.6987 20.6853 31.6987H18.6838C18.2524 31.6987 17.8268 31.7042 17.3954 31.6987H17.1826H17.1768C17.1653 31.7098 17.1481 31.7209 17.1423 31.7098C17.1423 31.7098 17.1423 31.7098 17.1423 31.7042H17.1481C17.1481 31.6987 17.1538 31.6987 17.1596 31.6931C17.1653 31.6931 17.1768 31.6931 17.1826 31.6931H17.1596C17.1538 31.6931 17.1481 31.6931 17.1423 31.6931H17.1366C16.9755 31.6931 16.8087 31.6931 16.6419 31.6931C16.6419 31.6931 16.6247 31.6931 16.6017 31.6987C16.5902 31.7098 16.5787 31.7154 16.5672 31.7154C16.5557 31.7209 16.5384 31.732 16.5269 31.7376C16.5212 31.7487 16.5096 31.7598 16.5039 31.7709C16.5039 31.7709 16.5039 31.7765 16.5039 31.7821C16.5269 31.7487 16.5557 31.732 16.4924 31.8154C16.4981 31.8099 16.5039 31.7932 16.5039 31.7821C16.4981 31.7876 16.4981 31.7932 16.4924 31.7932C16.4809 31.9322 16.4694 32.0767 16.4521 32.2157C16.3141 33.75 16.1761 35.2843 16.0438 36.8186C15.8827 38.6087 15.7217 40.3987 15.5606 42.1887C15.4974 42.9337 15.4283 43.673 15.3593 44.418C15.3593 44.4402 15.3536 44.4569 15.3536 44.4791C15.2558 45.5798 15.158 46.675 15.0602 47.7757H12.3455C11.7415 47.7757 11.1664 48.2871 11.1951 48.8875C11.2239 49.4879 11.7013 49.9993 12.3455 49.9993H26.0344C26.6268 50.0216 27.202 49.5101 27.1732 48.9097Z" fill="black"/>
</svg>
