<svg height="382pt" viewBox="-20 0 382 382.28992" width="382pt" xmlns="http://www.w3.org/2000/svg"><path d="m265.039062 368.652344-202.511718-37.507813c-8.40625-1.550781-13.964844-9.632812-12.40625-18.042969l51.273437-276.835937c1.554688-8.40625 9.632813-13.964844 18.042969-12.40625l202.515625 37.507813c8.40625 1.558593 13.964844 9.640624 12.40625 18.046874l-51.273437 276.832032c-1.554688 8.414062-9.636719 13.96875-18.046876 12.40625zm0 0" fill="#ff927d"/><path d="m265.039062 368.652344 1.242188-6.710938-202.511719-37.507812c-4.164062-.753906-7.082031-4.429688-7.082031-8.5l.144531-1.578125 51.273438-276.847657c.757812-4.167968 4.4375-7.089843 8.496093-7.089843l1.527344.140625.066406.011718 202.515626 37.507813c4.167968.757813 7.082031 4.429687 7.082031 8.5l-.148438 1.609375-51.273437 276.816406c-.757813 4.171875-4.425782 7.082032-8.492188 7.085938l-1.621094-.15625.023438.007812-1.242188 6.710938-1.21875 6.71875c1.34375.242187 2.703126.371094 4.0625.367187 10.570313.003907 19.914063-7.507812 21.914063-18.25l51.273437-276.832031c.253907-1.371094.378907-2.734375.378907-4.082031 0-10.574219-7.511719-19.917969-18.253907-21.921875l-202.511718-37.503906-1.242188 6.710937 1.308594-6.699219c-1.429688-.28125-2.824219-.394531-4.148438-.390625-10.582031 0-19.914062 7.515625-21.917968 18.253907l-51.273438 276.832031c-.253906 1.355469-.375 2.726562-.375 4.078125 0 10.570312 7.507813 19.917968 18.25 21.921875l202.515625 37.507812.023438.007813zm0 0" fill="#54596e"/><path d="m264.550781 375.464844h-242.09375c-8.554687 0-15.484375-6.929688-15.484375-15.484375v-337.667969c0-8.554688 6.929688-15.484375 15.484375-15.484375h242.09375c8.554688 0 15.488281 6.929687 15.488281 15.484375v337.667969c0 8.550781-6.933593 15.484375-15.488281 15.484375zm0 0" fill="#ff927d"/><path d="m264.550781 375.464844v-6.824219h-242.09375c-4.78125-.011719-8.648437-3.878906-8.660156-8.660156v-337.667969c.011719-4.785156 3.878906-8.652344 8.660156-8.664062h242.09375c4.78125.011718 8.652344 3.878906 8.660157 8.664062v337.667969c-.007813 4.78125-3.878907 8.648437-8.660157 8.660156v13.648437c12.328125-.003906 22.3125-9.988281 22.3125-22.308593v-337.667969c0-12.328125-9.984375-22.30859375-22.3125-22.3125h-242.09375c-12.324219.00390625-22.308593 9.988281-22.3125 22.3125v337.667969c.003907 12.324219 9.988281 22.304687 22.3125 22.308593h242.09375zm0 0" fill="#54596e"/><path d="m202.433594 204.800781h-41.863282v-34.132812h-34.132812v34.132812h-38.449219c-16.464843 0-33.230469 11.4375-33.230469 25.558594v22.226563h177.492188v-25.152344c0-12.5-15.234375-22.632813-29.816406-22.632813zm0 0" fill="#55a6ff"/><path d="m202.433594 204.800781v-6.828125h-35.035156v-27.304687c0-1.800781-.730469-3.558594-2.003907-4.832031-1.269531-1.269532-3.027343-1.996094-4.824219-1.996094h-34.132812c-1.796875 0-3.558594.726562-4.828125 1.996094-1.269531 1.273437-2 3.03125-2 4.832031v27.300781l-31.621094.003906c-9.816406.027344-19.351562 3.308594-26.851562 8.824219-3.742188 2.773437-6.984375 6.144531-9.363281 10.105469-2.367188 3.953125-3.847657 8.5625-3.84375 13.457031v22.226563c0 1.824218.710937 3.535156 2.003906 4.828124 1.289062 1.289063 3.003906 1.996094 4.824218 1.996094h177.492188c1.824219 0 3.539062-.707031 4.828125-1.996094 1.289063-1.292968 2-3.003906 2-4.828124v-25.152344c.003906-4.527344-1.402344-8.773438-3.609375-12.375-3.339844-5.414063-8.371094-9.5625-14.105469-12.484375-5.75-2.902344-12.273437-4.59375-18.929687-4.597657v13.648438c5.710937-.03125 11.972656 2.097656 16.359375 5.324219 2.203125 1.597656 3.929687 3.433593 5.027343 5.234375 1.101563 1.816406 1.597657 3.523437 1.605469 5.25v18.320312h-163.839843v-15.394531c.003906-2.167969.621093-4.285156 1.910156-6.449219 1.910156-3.226562 5.441406-6.414062 9.863281-8.675781 4.410156-2.277344 9.640625-3.617187 14.632813-3.609375h38.449218c1.820313 0 3.535156-.707031 4.824219-2 1.292969-1.289062 2-3.003906 2-4.824219v-27.3125h20.480469v27.3125c0 1.820313.710937 3.535157 2 4.824219 1.292968 1.292969 3.003906 2 4.828125 2h41.863281v-6.824219zm0 0" fill="#54596e"/><path d="m204.945312 146.773438 3.414063-41.667969c0-27.886719-21.210937-50.492188-47.375-50.492188h-34.960937c-26.160157 0-47.371094 22.605469-47.371094 50.492188l3.414062 41.667969" fill="#fff35f"/><path d="m211.746094 147.328125 3.414062-41.664063.023438-.558593c0-15.683594-5.96875-29.976563-15.722656-40.375-9.734376-10.398438-23.398438-16.949219-38.476563-16.945313h-34.960937c-15.078126-.003906-28.742188 6.546875-38.476563 16.945313-9.753906 10.398437-15.722656 24.691406-15.722656 40.375l.019531.558593 3.414062 41.664063c.308594 3.757813 3.605469 6.554687 7.363282 6.246094 3.757812-.308594 6.554687-3.601563 6.246094-7.355469l-3.414063-41.671875-6.804687.558594h6.828124c0-12.203125 4.636719-23.15625 12.027344-31.03125 7.410156-7.882813 17.433594-12.628907 28.519532-12.636719h34.960937c11.082031.007812 21.105469 4.753906 28.519531 12.636719 7.390625 7.875 12.027344 18.828125 12.027344 31.03125h6.824219l-6.804688-.558594-3.410156 41.667969c-.3125 3.753906 2.484375 7.050781 6.242187 7.359375 3.757813.308593 7.054688-2.484375 7.363282-6.242188zm0 0" fill="#54596e"/><path d="m120.867188 115.664062c-33.929688 0-38.800782-29.585937-38.800782 3.308594v27.515625c0 14.671875 6.980469 33.917969 18.851563 48.078125 8.996093 10.71875 25.300781 17.058594 42.585937 17.058594 17.289063 0 33.589844-6.339844 42.585938-17.058594 11.875-14.160156 18.855468-33.40625 18.855468-48.078125v-27.515625c0-32.894531-50.144531-3.308594-84.078124-3.308594zm0 0" fill="#ffd578"/><g fill="#54596e"><path d="m120.867188 115.664062v-6.824218c-9.617188-.023438-16.214844-2.609375-21.289063-5.304688-2.539063-1.359375-4.644531-2.75-6.640625-3.992187-1.011719-.621094-1.988281-1.210938-3.15625-1.757813-1.171875-.523437-2.554688-1.136718-4.75-1.167968-1.195312-.011719-2.65625.269531-3.957031.957031-1.140625.589843-2.085938 1.4375-2.753907 2.28125-1.175781 1.5-1.65625 2.882812-2.023437 4.175781-.515625 1.949219-.71875 3.882812-.871094 6.28125-.140625 2.386719-.1875 5.210938-.1875 8.660156v27.515625c.011719 8.410157 1.949219 17.589844 5.425781 26.675781 3.488282 9.074219 8.53125 18.042969 15.023438 25.785157 5.390625 6.414062 12.671875 11.238281 20.894531 14.511719 8.230469 3.265624 17.445313 4.984374 26.921875 4.988281 9.476563-.003907 18.691406-1.722657 26.921875-4.988281 8.222657-3.273438 15.503907-8.097657 20.894531-14.507813 6.488282-7.746094 11.535157-16.714844 15.023438-25.789063 3.476562-9.085937 5.414062-18.265624 5.425781-26.675781v-27.515625c0-3.550781-.476562-6.808594-1.585937-9.78125-1.613282-4.476562-4.988282-8.125-8.9375-10.039062-3.945313-1.957032-8.167969-2.527344-12.480469-2.539063-10.304687.058594-21.984375 3.304688-34.042969 6.320313-11.980468 3.0625-24.203125 5.9375-33.855468 5.90625v13.648437c12.15625-.03125 25.09375-3.269531 37.210937-6.320312 12.046875-3.09375 23.410156-5.960938 30.6875-5.90625 2.007813 0 3.65625.203125 4.859375.535156 1.835938.539063 2.511719 1.089844 3.152344 1.960937.621094.890626 1.335937 2.691407 1.339844 6.214844v27.511719c.011718 6.261719-1.539063 14.042969-4.519532 21.789063-2.972656 7.753906-7.351562 15.488281-12.738281 21.90625-3.601563 4.304687-8.972656 8.011718-15.472656 10.589843-6.492188 2.582031-14.074219 4.03125-21.882813 4.027344-7.808594.003906-15.386718-1.445313-21.878906-4.027344-6.5-2.578125-11.871094-6.285156-15.476562-10.59375-5.382813-6.414062-9.765626-14.148437-12.734376-21.902343-2.984374-7.746094-4.535156-15.527344-4.523437-21.789063v-27.511719c-.015625-5.730468.199219-9.484375.492187-10.925781l.117188-.523437-3.402344-1.203126 2.355469 2.625c.878906-.820312 1.035156-1.417968 1.046875-1.421874l-3.402344-1.203126 2.355469 2.625-3.417969-3.804687v5.125c.910156.0625 2.566406-.476563 3.417969-1.320313l-3.417969-3.804687v5.128906-3.726562l-1.042968 3.59375 1.042968.128906v-3.722656l-1.042968 3.589843.34375-1.1875-.441407 1.15625.097657.035157.34375-1.191407-.441407 1.160157c.058594-.023438 1.550781.820312 3.453125 2.046875 5.863282 3.734375 16.910156 10.40625 33.523438 10.339844v-6.828126zm0 0"/><path d="m68.410156 314.027344h143.363282c3.769531 0 6.824218-3.058594 6.824218-6.828125 0-3.773438-3.054687-6.824219-6.824218-6.824219h-143.363282c-3.769531 0-6.824218 3.050781-6.824218 6.824219 0 3.769531 3.054687 6.828125 6.824218 6.828125"/><path d="m68.410156 341.332031h75.09375c3.769532 0 6.828125-3.054687 6.828125-6.824219 0-3.773437-3.058593-6.828124-6.828125-6.828124h-75.09375c-3.769531 0-6.824218 3.054687-6.824218 6.828124 0 3.769532 3.054687 6.824219 6.824218 6.824219"/></g></svg>