<svg id="Capa_1" enable-background="new 0 0 512 512" height="512" viewBox="0 0 512 512" width="512" xmlns="http://www.w3.org/2000/svg"><g><path d="m165.86 153.35.132.531v-.531z" fill="none"/><path d="m284.498 355.202c2.879 10.028-1.46 20.72-10.595 25.761-11.143 6.149-24.663 6.149-35.806 0-9.135-5.041-13.474-15.732-10.595-25.761.509-1.773.958-3.544 1.372-5.311-42.413 13.933-40.768 13.279-44.495 14.825 6.036 18.961 17.921 48.837 38.246 72.624 17.564 20.555 49.188 20.555 66.751 0 20.462-23.948 32.369-54.065 38.366-73.005-5.193-2.166-6.819-2.378-44.82-15.296.463 2.048.985 4.105 1.576 6.163z" fill="#d2edff"/><path d="m231.847 309.109c-4.189-2.246-6.373-4.096-8.97-5.883-30.892-22.058-50.905-55.856-55.737-92.982h-17.085c-4.676 0-9.084-1.135-12.976-3.135v88.543c0 18.766 15.213 33.979 33.979 33.979h60.804c.513-7.505.392-14.501-.015-20.522z" fill="#fff398"/><path d="m344.86 210.243c-8.557 65.747-57.584 93.741-59.142 95.414-1.796 1.282-3.657 2.428-5.565 3.452-.407 6.021-.528 13.017-.015 20.521h61.231c18.766 0 33.979-15.213 33.979-33.979v-88.761c-3.994 2.138-8.556 3.354-13.403 3.354h-17.085z" fill="#fff398"/><path d="m280.153 309.109c-15.07 8.083-33.235 8.083-48.305 0 .904 13.388.147 27.455-2.974 40.782-.414 1.766-.863 3.537-1.372 5.311-2.879 10.028 1.46 20.72 10.595 25.761 11.143 6.149 24.663 6.149 35.806 0 9.135-5.041 13.474-15.732 10.595-25.761-.591-2.058-1.113-4.115-1.576-6.163-2.92-12.915-3.662-26.721-2.769-39.93z" fill="#ffcbbe"/><path d="m167.14 210.243c-.752-5.775-1.148-11.628-1.148-17.533v-38.829l-.132-.531h-15.805c-15.711 0-28.447 12.736-28.447 28.447 0 11.035 6.287 20.595 15.471 25.312 3.892 1.999 8.3 3.135 12.976 3.135h17.085z" fill="#ffcbbe"/><path d="" fill="#b4bdd1"/><path d="m327.742 364.335c-5.997 18.94-17.904 49.058-38.366 73.005-17.564 20.555-49.188 20.555-66.751 0-20.325-23.786-32.21-53.662-38.246-72.624l-.001-.001c-27.07 11.229-44.999 37.739-44.999 67.408v29.029c0 13.461 10.913 24.375 24.375 24.375h184.493c13.462 0 24.375-10.913 24.375-24.375v-29.466c-.001-29.608-17.861-56.084-44.88-67.351z" fill="#b4bdd1"/><path d="m361.945 153.35h-15.805l-.132.531v38.829c0 5.905-.397 11.758-1.148 17.533h17.085c15.652 0 28.447-12.688 28.447-28.447-.001-15.71-12.737-28.446-28.447-28.446z" fill="#ffcbbe"/><path d="m281.09 120.395c-17.672 20.197-43.635 32.955-72.58 32.955h-42.518v.531c.279 35.577-.704 42.128 1.148 56.362 8.557 65.747 57.584 93.741 59.142 95.414 17.707 12.641 41.611 12.725 59.434 0 1.585-1.701 50.582-29.639 59.142-95.414 1.531-11.763 1.148-16.045 1.148-56.894-.322-.128-37.958-10.465-64.916-32.954z" fill="#ffddcf"/><path d="m281.092 120.392c25.95 21.641 64.81 32.916 64.916 32.958h29.34v-11.134c0-46.939-29.574-86.967-71.103-102.48.429 1.546.677 3.168.677 4.85-.85 5.565 5.563 42.213-23.83 75.806z" fill="#fff398"/><path d="m165.992 153.35h42.518c28.945 0 54.908-12.759 72.58-32.955.001-.001.002-.002.002-.002 14.836-16.956 23.83-39.154 23.83-63.454v-12.352c0-1.683-.247-3.304-.677-4.85-2.123-7.645-9.116-13.263-17.436-13.263h-22.853c-70.072 0-126.876 56.804-126.876 126.876h28.78z" fill="#fff398"/><g><path d="m220.24 208.84c6.019 1.221 11.95-3.382 11.95-9.8 0-4.7-3.278-8.842-8.05-9.81-6.067-1.224-11.95 3.423-11.95 9.81 0 4.74 3.331 8.842 8.05 9.8z"/><path d="m287.86 208.84c6.05 1.228 11.95-3.408 11.95-9.8 0-6.405-5.886-11.024-11.95-9.81-4.849.984-8.05 5.201-8.05 9.81 0 4.59 3.213 8.818 8.05 9.8z"/><path d="m234.096 275.087c12.693 10.326 31.116 10.326 43.809 0 4.284-3.485 4.932-9.784 1.446-14.068s-9.784-4.931-14.068-1.446c-5.378 4.376-13.187 4.376-18.564 0-4.286-3.485-10.583-2.837-14.068 1.446-3.487 4.284-2.839 10.583 1.445 14.068z"/><path d="m98.007 0h-42.902c-20.886 0-37.878 16.992-37.878 37.878v42.902c0 5.523 4.477 10 10 10s10-4.477 10-10v-42.902c0-9.858 8.02-17.878 17.878-17.878h42.902c5.523 0 10-4.477 10-10s-4.477-10-10-10z"/><path d="m456.895 0h-42.902c-5.523 0-10 4.477-10 10s4.477 10 10 10h42.902c9.858 0 17.879 8.02 17.879 17.878v42.902c0 5.523 4.477 10 10 10s10-4.477 10-10v-42.902c-.001-20.886-16.993-37.878-37.879-37.878z"/><path d="m484.773 421.219c-5.523 0-10 4.477-10 10v42.902c0 9.858-8.021 17.878-17.879 17.878h-42.902c-5.523 0-10 4.477-10 10s4.477 10 10 10h42.902c20.887 0 37.879-16.992 37.879-37.878v-42.902c0-5.523-4.477-10-10-10z"/><path d="m98.007 492h-42.902c-9.858 0-17.879-8.02-17.879-17.878v-42.902c0-5.523-4.477-10-10-10s-10 4.477-10 10v42.902c0 20.886 16.992 37.878 37.879 37.878h42.902c5.523 0 10-4.477 10-10s-4.477-10-10-10z"/><path d="m181.998 66.505h.025c5.523 0 9.987-4.477 9.987-10s-4.489-10-10.012-10-10 4.477-10 10 4.477 10 10 10z"/><path d="m385.348 151.323v-9.108c0-49.709-30.352-92.239-73.397-110.185-4.621-9.214-14.152-15.557-25.142-15.557-15.549.895-40.617-3.571-73.978 9.87-5.123 2.064-7.603 7.89-5.539 13.012 2.063 5.122 7.889 7.604 13.012 5.539 28.981-11.675 50.461-7.557 66.504-8.421 3.597 0 6.812 2.381 7.802 5.941.466 1.677.286 1.723.312 14.523 0 45.008-34.81 82.623-79.46 86.132-4.242.342-63.797.285-67.959.28 1.623-19.099 7.886-37.443 18.355-53.564 3.008-4.632 1.691-10.825-2.94-13.833-4.63-3.008-10.825-1.691-13.833 2.94-13.963 21.501-21.519 46.371-21.963 72.065-9.409 7.015-15.514 18.227-15.514 30.838 0 12.593 6.086 23.791 15.471 30.808v83.047c0 24.25 19.729 43.979 43.979 43.979h49.626c-.133.851-.279 1.706-.433 2.565-35.522 11.675-34.046 11.116-36.739 12.118-32.509 12.036-54.134 42.911-54.134 77.81v29.029c0 18.954 15.42 34.375 34.375 34.375h184.493c18.954 0 34.375-15.42 34.375-34.375v-29.466c0-35.855-22.923-67.341-56.501-78.65-.001 0-.001 0-.002-.001l-34.51-11.622c-.103-.596-.201-1.189-.293-1.781h50.054c24.25 0 43.979-19.729 43.979-43.979v-83.382c9.139-7.035 15.043-18.074 15.043-30.473s-5.905-23.438-15.043-30.474zm-29.54 48.92c.358-6.809.108-7.889.2-36.893h5.937c10.171 0 18.447 8.275 18.447 18.447 0 7.604-4.627 14.146-11.212 16.965-5.506 2.333-9.4 1.161-13.372 1.481zm9.54-56.893c-6.355 0-6.945 0-17.889 0-17.07-5.203-37.341-14.344-52.226-24.745 20.949-29.442 19.145-58.216 19.69-61.667v-1.208c53.649 30.498 50.378 87.455 50.425 87.62zm-83.261-9.544c15.67 11.293 35.485 20.614 53.92 26.868v32.036c0 38.625-18.071 76.209-49.849 100.279-9.403 7.123-16.776 11.832-29.037 12.167-15.633.424-24.73-7.992-28.433-10.068-33.734-24.084-52.696-62.877-52.696-102.377v-29.36c29.27-.011 69.959 5.033 106.095-29.545zm13.234 229.961 19.813 6.673c-6.602 18.461-17.217 41.51-33.361 60.404-13.577 15.889-37.988 15.866-51.546 0-16.031-18.761-26.609-41.636-33.208-59.979l19.709-6.465c1.762 19.778 19.944 31.21 39.271 31.21 19.923-.001 37.958-12.118 39.322-31.843zm-25.489-40.163c.276 11.501 1.871 23.26 5.055 34.358 1.611 5.609-.78 11.467-5.814 14.245-10.532 5.811-23.252 3.328-28.688-1.865-5.618-5.366-3.269-12.485-3.269-12.385 2.836-9.881 4.749-21.662 5.053-34.353 9.288 2.166 19.122 1.995 27.663 0zm-113.84-160.254c.099 21.035-.193 29.436.2 36.894h-6.136c-10.147 0-18.447-8.259-18.447-18.447 0-10.171 8.275-18.447 18.447-18.447zm15.067 156.28c-13.222 0-23.979-10.757-23.979-23.979v-75.525c2.792.22 6.257.069 11.55.117 7.751 40.184 32.724 74.239 63.492 94.688.055 1.694.073 3.151.073 4.699zm191.562 112.056v29.466c0 7.926-6.448 14.375-14.375 14.375h-12.85v-20.673c0-5.523-4.477-10-10-10s-10 4.477-10 10v20.673h-118.793v-20.673c0-5.523-4.477-10-10-10s-10 4.477-10 10v20.673h-12.85c-7.926 0-14.375-6.448-14.375-14.375v-29.029c0-21.996 11.322-41.881 29.289-53.227 7.254 19.854 18.802 44.4 36.354 64.94 21.564 25.237 60.423 25.2 81.956 0 17.643-20.647 29.221-45.329 36.482-65.29 17.885 11.372 29.162 31.247 29.162 53.14zm2.727-211.595v75.56c0 13.222-10.757 23.979-23.979 23.979h-51.563c-.001-1.551.018-3.007.073-4.699 30.894-20.533 55.748-54.531 63.492-94.688 7.997-.014 9.542.066 11.977-.152z"/></g></g></svg>