<svg width="50" height="50" viewBox="0 0 50 50" fill="none" xmlns="http://www.w3.org/2000/svg">
<path d="M14.2622 25.0193C16.3413 27.2386 20.7664 28.4125 25 28.4125C29.2337 28.4125 33.6588 27.2386 35.7379 25.0191L33.7203 19.5251C30.9061 20.6244 27.9601 21.1631 25 21.1199C22.0411 21.1618 19.0969 20.6157 16.2875 19.5039L14.2622 25.0193Z" fill="black"/>
<path d="M17.6077 15.9089C20.0025 16.786 22.4955 17.2191 25 17.1931C27.5045 17.2191 29.9975 16.786 32.3924 15.9089L30.009 9.41838C28.3532 9.74317 26.6779 9.90439 25 9.90039C23.3233 9.90268 21.6493 9.73731 19.9956 9.40601L17.6077 15.9089Z" fill="black"/>
<path d="M28.6379 5.68468L27.1741 1.69842C26.9886 1.19334 26.6843 0.763794 26.2982 0.462197C25.9121 0.160599 25.461 0 25 0C24.5389 0 24.0878 0.160599 23.7018 0.462197C23.3157 0.763794 23.0114 1.19334 22.8259 1.69842L21.3621 5.68468C22.568 5.87696 23.7833 5.97346 24.9999 5.97356C26.2165 5.97346 27.4319 5.87696 28.6379 5.68468V5.68468Z" fill="black"/>
<path d="M49.2112 33.9815L39.358 29.0935L40.5405 32.3132V32.8021C40.5405 39.4055 32.1692 41.7483 25.0001 41.7483C17.8311 41.7483 9.45977 39.4055 9.45977 32.8021V32.3136L10.6422 29.0934L0.788844 33.9815C0.555325 34.0974 0.355748 34.2934 0.215339 34.545C0.0749303 34.7965 -6.66452e-06 35.0922 4.44552e-10 35.3947V36.717C-3.74663e-06 37.0195 0.0749352 37.3152 0.215344 37.5667C0.355753 37.8182 0.555329 38.0143 0.788844 38.1301L24.4533 49.8698C24.6266 49.9558 24.8124 50 25 50C25.1877 50 25.3734 49.9558 25.5468 49.8698L49.2112 38.1301C49.4447 38.0142 49.6442 37.8182 49.7846 37.5667C49.9251 37.3151 50 37.0195 50 36.717V35.3947C50 35.0922 49.9251 34.7965 49.7847 34.545C49.6443 34.2934 49.4447 34.0974 49.2112 33.9815V33.9815Z" fill="black"/>
<path d="M11.4042 32.8021C11.4042 41.6281 38.5959 41.6281 38.5958 32.8021L37.1019 28.7337C34.1718 31.19 29.5748 32.3393 24.9999 32.3393C21.2113 32.3393 17.6526 31.5472 14.9797 30.1085C14.2531 29.7218 13.5596 29.2513 12.9091 28.7039L11.4042 32.8021Z" fill="black"/>
</svg>
