<svg width="50" height="50" viewBox="0 0 50 50" fill="none" xmlns="http://www.w3.org/2000/svg">
<path d="M42.4452 40.23C44.3891 40.23 45.965 38.4374 45.965 36.2261C45.965 34.0148 44.3891 32.2222 42.4452 32.2222C40.5013 32.2222 38.9254 34.0148 38.9254 36.2261C38.9254 38.4374 40.5013 40.23 42.4452 40.23Z" fill="black"/>
<path d="M42.4453 41.0479C38.273 41.0479 34.8907 44.1183 34.8906 47.9057C34.8906 50.6981 49.9999 50.6981 50 47.9057C50.0001 44.1183 46.6177 41.0479 42.4453 41.0479Z" fill="black"/>
<path d="M25 40.23C26.9439 40.23 28.5198 38.4374 28.5198 36.2261C28.5198 34.0148 26.9439 32.2222 25 32.2222C23.0561 32.2222 21.4802 34.0148 21.4802 36.2261C21.4802 38.4374 23.0561 40.23 25 40.23Z" fill="black"/>
<path d="M17.4453 47.9057C17.4452 50.6981 32.5546 50.6981 32.5547 47.9057C32.5547 44.1183 29.1724 41.0479 25 41.0479C20.8277 41.0479 17.4454 44.1183 17.4453 47.9057Z" fill="black"/>
<path d="M7.5547 40.23C9.49863 40.23 11.0745 38.4374 11.0745 36.2261C11.0745 34.0148 9.49863 32.2222 7.5547 32.2222C5.61078 32.2222 4.03491 34.0148 4.03491 36.2261C4.03491 38.4374 5.61078 40.23 7.5547 40.23Z" fill="black"/>
<path d="M9.85485e-10 47.9057C6.66676e-05 50.6981 15.1094 50.6981 15.1094 47.9057C15.1093 44.1183 11.727 41.0479 7.55465 41.0479C3.3823 41.0479 -6.66656e-05 44.1183 9.85485e-10 47.9057Z" fill="black"/>
<path d="M49.4444 0H21.1524C21.005 0 20.8637 0.0585317 20.7595 0.162719C20.6554 0.266905 20.5968 0.408213 20.5968 0.555556V18.7288C21.3127 18.7644 22.0902 18.8241 22.819 18.921V2.22222H47.7778V25.5556H22.819V23.7048C23.1452 23.6583 23.4443 23.6122 23.6922 23.5697C23.9325 23.5328 24.1531 23.4153 24.3179 23.2364C24.4826 23.0576 24.5816 22.828 24.5986 22.5855L32.0163 17.2675C32.1931 17.1374 32.3115 16.9428 32.3458 16.726C32.38 16.5091 32.3273 16.2875 32.1991 16.1093C32.0708 15.931 31.8775 15.8106 31.661 15.7741C31.4445 15.7376 31.2224 15.7881 31.0428 15.9144L23.5309 21.3C21.84 21.0082 20.1257 20.8739 18.4099 20.899C18.298 20.1034 16.7817 15.7687 15.343 14.2976C14.5352 13.4717 12.604 12.6887 10.5626 12.3948C9.40154 12.2354 8.22415 12.2354 7.06311 12.3948C5.02156 12.6878 3.09048 13.4717 2.28271 14.2976C0.051808 16.579 -0.0407646 23.2535 0.00854089 27.7778H2.74495C3.1886 24.7604 3.5936 23.6146 3.90129 20.4111L4.29497 24.1494C4.30988 24.4162 4.31418 24.6833 4.30785 24.9507L4.24126 27.7778H13.3845L13.3179 24.9507C13.3116 24.6835 13.3159 24.4164 13.3307 24.1494L13.7245 20.4111C13.8514 20.8113 16.0597 23.4423 17.3479 23.9168C17.8954 24.1186 19.2293 24.0816 20.5968 23.9616V27.2222C20.5968 27.3696 20.6553 27.5109 20.7595 27.6151C20.8637 27.7192 21.005 27.7778 21.1523 27.7778H49.4444C49.5918 27.7778 49.7331 27.7192 49.8373 27.6151C49.9415 27.5109 50 27.3696 50 27.2222V0.555556C50 0.408213 49.9415 0.266905 49.8373 0.162719C49.7331 0.0585317 49.5918 0 49.4444 0Z" fill="black"/>
<path d="M8.81284 10.6085C10.8445 10.6085 12.4915 8.81383 12.4915 6.59995C12.4915 4.38607 10.8445 2.59137 8.81284 2.59137C6.78116 2.59137 5.13416 4.38607 5.13416 6.59995C5.13416 8.81383 6.78116 10.6085 8.81284 10.6085Z" fill="black"/>
</svg>
