<svg width="50" height="50" viewBox="0 0 50 50" fill="none" xmlns="http://www.w3.org/2000/svg">
<path d="M25 6.66667C26.8409 6.66667 28.3333 5.17428 28.3333 3.33333C28.3333 1.49238 26.8409 0 25 0C23.159 0 21.6666 1.49238 21.6666 3.33333C21.6666 5.17428 23.159 6.66667 25 6.66667Z" fill="black"/>
<path d="M26.6666 8.33331H23.3333C22.2282 8.33331 21.1684 8.7723 20.387 9.5537C19.6056 10.3351 19.1666 11.3949 19.1666 12.5V15C19.1666 15.221 19.2544 15.433 19.4107 15.5892C19.567 15.7455 19.7789 15.8333 20 15.8333H30C30.221 15.8333 30.4329 15.7455 30.5892 15.5892C30.7455 15.433 30.8333 15.221 30.8333 15V12.5C30.8333 11.3949 30.3943 10.3351 29.6129 9.5537C28.8315 8.7723 27.7717 8.33331 26.6666 8.33331Z" fill="black"/>
<path d="M5.83333 40.8334C7.67428 40.8334 9.16667 39.341 9.16667 37.5C9.16667 35.6591 7.67428 34.1667 5.83333 34.1667C3.99238 34.1667 2.5 35.6591 2.5 37.5C2.5 39.341 3.99238 40.8334 5.83333 40.8334Z" fill="black"/>
<path d="M7.5 42.5H4.16667C3.0616 42.5 2.00179 42.939 1.22039 43.7204C0.438987 44.5018 0 45.5616 0 46.6667V49.1667C0 49.3877 0.0877973 49.5996 0.244078 49.7559C0.400358 49.9122 0.61232 50 0.833333 50H10.8333C11.0543 50 11.2663 49.9122 11.4226 49.7559C11.5789 49.5996 11.6667 49.3877 11.6667 49.1667V46.6667C11.6667 45.5616 11.2277 44.5018 10.4463 43.7204C9.66488 42.939 8.60507 42.5 7.5 42.5V42.5Z" fill="black"/>
<path d="M44.1667 40.8334C46.0077 40.8334 47.5 39.341 47.5 37.5C47.5 35.6591 46.0077 34.1667 44.1667 34.1667C42.3258 34.1667 40.8334 35.6591 40.8334 37.5C40.8334 39.341 42.3258 40.8334 44.1667 40.8334Z" fill="black"/>
<path d="M45.8334 42.5H42.5C41.395 42.5 40.3352 42.939 39.5538 43.7204C38.7724 44.5018 38.3334 45.5616 38.3334 46.6667V49.1667C38.3334 49.3877 38.4212 49.5996 38.5775 49.7559C38.7337 49.9122 38.9457 50 39.1667 50H49.1667C49.3877 50 49.5997 49.9122 49.756 49.7559C49.9122 49.5996 50 49.3877 50 49.1667V46.6667C50 45.5616 49.5611 44.5018 48.7797 43.7204C47.9983 42.939 46.9384 42.5 45.8334 42.5V42.5Z" fill="black"/>
<path d="M30.8334 24.1667C30.6124 24.1667 30.4004 24.0789 30.2441 23.9226C30.0878 23.7663 30 23.5543 30 23.3333V17.5H14.1667C13.9457 17.5 13.7337 17.5878 13.5775 17.7441C13.4212 17.9004 13.3334 18.1123 13.3334 18.3333V43.3333C13.3334 43.5543 13.4212 43.7663 13.5775 43.9226C13.7337 44.0789 13.9457 44.1667 14.1667 44.1667H35.8334C36.0544 44.1667 36.2664 44.0789 36.4226 43.9226C36.5789 43.7663 36.6667 43.5543 36.6667 43.3333V24.1667H30.8334ZM17.5 22.5H25C25.2211 22.5 25.433 22.5878 25.5893 22.7441C25.7456 22.9004 25.8334 23.1123 25.8334 23.3333C25.8334 23.5543 25.7456 23.7663 25.5893 23.9226C25.433 24.0789 25.2211 24.1667 25 24.1667H17.5C17.279 24.1667 17.0671 24.0789 16.9108 23.9226C16.7545 23.7663 16.6667 23.5543 16.6667 23.3333C16.6667 23.1123 16.7545 22.9004 16.9108 22.7441C17.0671 22.5878 17.279 22.5 17.5 22.5ZM32.5 39.1667H17.5C17.279 39.1667 17.0671 39.0789 16.9108 38.9226C16.7545 38.7663 16.6667 38.5543 16.6667 38.3333C16.6667 38.1123 16.7545 37.9004 16.9108 37.7441C17.0671 37.5878 17.279 37.5 17.5 37.5H32.5C32.7211 37.5 32.933 37.5878 33.0893 37.7441C33.2456 37.9004 33.3334 38.1123 33.3334 38.3333C33.3334 38.5543 33.2456 38.7663 33.0893 38.9226C32.933 39.0789 32.7211 39.1667 32.5 39.1667ZM32.5 34.1667H17.5C17.279 34.1667 17.0671 34.0789 16.9108 33.9226C16.7545 33.7663 16.6667 33.5543 16.6667 33.3333C16.6667 33.1123 16.7545 32.9004 16.9108 32.7441C17.0671 32.5878 17.279 32.5 17.5 32.5H32.5C32.7211 32.5 32.933 32.5878 33.0893 32.7441C33.2456 32.9004 33.3334 33.1123 33.3334 33.3333C33.3334 33.5543 33.2456 33.7663 33.0893 33.9226C32.933 34.0789 32.7211 34.1667 32.5 34.1667ZM32.5 29.1667H17.5C17.279 29.1667 17.0671 29.0789 16.9108 28.9226C16.7545 28.7663 16.6667 28.5543 16.6667 28.3333C16.6667 28.1123 16.7545 27.9004 16.9108 27.7441C17.0671 27.5878 17.279 27.5 17.5 27.5H32.5C32.7211 27.5 32.933 27.5878 33.0893 27.7441C33.2456 27.9004 33.3334 28.1123 33.3334 28.3333C33.3334 28.5543 33.2456 28.7663 33.0893 28.9226C32.933 29.0789 32.7211 29.1667 32.5 29.1667Z" fill="black"/>
<path d="M31.6666 17.9833V22.5H36.3L31.6666 17.9833Z" fill="black"/>
</svg>
